<?xml version="1.0" encoding="UTF-8"?>
<svg width="27px" height="25px" viewBox="0 0 27 25" version="1.1" xmlns="http://www.w3.org/2000/svg" xmlns:xlink="http://www.w3.org/1999/xlink">
    <!-- Generator: Sketch 61.2 (89653) - https://sketch.com -->
    <title>logo</title>
    <desc>Created with Sketch.</desc>
    <g id="screens" stroke="none" stroke-width="1" fill="none" fill-rule="evenodd">
        <g id="Tablet" transform="translate(-20.000000, -18.000000)">
            <g id="Group-11">
                <g id="logo" transform="translate(19.444444, 17.666667)">
                    <rect id="Rectangle" fill="#000000" x="0.925925926" y="0.333333333" width="26" height="25"></rect>
                    <path d="M22.7817104,16.1308013 L24.2400881,16.1308013 L24.2400881,18.5445387 L19.6720726,18.5445387 L19.6720726,12.3149091 C19.6720726,10.3948552 19.0401089,9.65589226 17.8012719,9.65589226 C16.2942815,9.65589226 15.6874081,10.7393401 15.6874081,12.2906936 L15.6874081,16.155798 L17.1450019,16.155798 L17.1450019,18.5687542 L12.55268,18.5687542 L12.55268,12.3149091 C12.55268,10.3948552 11.9207163,9.65589226 10.6818793,9.65589226 C9.17567296,9.65589226 8.56801556,10.7393401 8.56801556,12.2906936 L8.56801556,16.155798 L10.657573,16.155798 L10.657573,18.5687542 L4,18.5687542 L4,16.155798 L5.45837778,16.155798 L5.45837778,9.87851852 L4,9.87851852 L4,7.46478114 L8.59232185,7.46478114 L8.59232185,9.13955556 C9.24859185,7.9576835 10.3902037,7.24371717 11.9207163,7.24371717 C13.5006256,7.24371717 14.9582193,8.00689562 15.4929578,9.63245791 C16.0998311,8.15453199 17.3394522,7.24371717 19.0644152,7.24371717 C21.0324411,7.24371717 22.830323,8.45058586 22.830323,11.0846061 L22.830323,16.1315825 L22.7817104,16.1315825 L22.7817104,16.1308013 Z" id="Shape" fill="#FFFFFF"></path>
                </g>
            </g>
        </g>
    </g>
</svg>